Coordinates
version=1
nRows=16
nColumns=40
inDegrees=yes

Units are S.I. units (second, meters, Newtons, ...)
If the header above contains a line with 'inDegrees', this indicates whether rotational values are in degrees (yes) or radians (no).

endheader
time	pelvis_tilt	pelvis_list	pelvis_rotation	pelvis_tx	pelvis_ty	pelvis_tz	hip_flexion_r	hip_adduction_r	hip_rotation_r	knee_angle_r	knee_angle_r_beta	ankle_angle_r	subtalar_angle_r	mtp_angle_r	hip_flexion_l	hip_adduction_l	hip_rotation_l	knee_angle_l	knee_angle_l_beta	ankle_angle_l	subtalar_angle_l	mtp_angle_l	lumbar_extension	lumbar_bending	lumbar_rotation	arm_flex_r	arm_add_r	arm_rot_r	elbow_flex_r	pro_sup_r	wrist_flex_r	wrist_dev_r	arm_flex_l	arm_add_l	arm_rot_l	elbow_flex_l	pro_sup_l	wrist_flex_l	wrist_dev_l
      0.00000000	    -22.30858529	     17.11713843	     -7.49733085	     -3.25069773	      0.92686546	      0.38915927	     -6.80098076	    -20.18763605	      1.20161218	     15.78360684	      0.27547591	    -20.62616953	      0.00000000	      0.00000000	     77.84421601	     -1.72169650	    -13.08378687	     96.57325405	      1.68552125	      8.38628562	      0.00000000	      0.00000000	    -15.74823626	    -24.70952619	     -0.91208984	     69.84218773	    -20.30104437	      4.07128012	    129.88176356	     35.88924835	      0.00000000	      0.00000000	    -77.26231839	    -13.78376289	    -39.11887060	     78.44241912	     89.50234987	      0.00000000	      0.00000000
      0.00500000	    -22.48986424	     17.69320610	     -6.55506471	     -3.22078831	      0.92942820	      0.38911443	     -8.20964271	    -20.54676079	      1.17560231	     15.32444777	      0.26746207	    -24.37048860	      0.00000000	      0.00000000	     78.06132007	     -1.02126948	    -13.74472236	     92.38916583	      1.61249514	      8.57250617	      0.00000000	      0.00000000	    -15.66391798	    -25.56930743	     -1.85954483	     68.37931432	    -20.68928176	      3.84816311	    131.12992766	     36.04319944	      0.00000000	      0.00000000	    -77.52239657	    -13.51916559	    -39.73542832	     79.35390758	     89.50882900	      0.00000000	      0.00000000
      0.01000000	    -22.58565209	     18.15006446	     -5.74497502	     -3.19094228	      0.93233004	      0.38907544	     -9.40760347	    -20.75978836	      1.29811524	     15.34300767	      0.26778600	    -27.58493789	      0.00000000	      0.00000000	     77.93165041	     -0.39222429	    -14.37895508	     88.02614810	      1.53634611	      8.69934994	      0.00000000	      0.00000000	    -15.72269011	    -26.29739647	     -2.67031946	     66.56866704	    -21.15032033	      3.60843227	    132.06198121	     38.24777221	      0.00000000	      0.00000000	    -77.40104106	    -13.33204650	    -40.22993108	     80.20860249	     89.50988135	      0.00000000	      0.00000000
      0.01500000	    -22.58589728	     18.46870664	     -5.07875318	     -3.16118905	      0.93550944	      0.38903529	    -10.37881749	    -20.81845620	      1.58062160	     15.88711076	      0.27728239	    -30.17106916	      0.00000000	      0.00000000	     77.46728956	      0.16025744	    -14.95553125	     83.51914429	      1.45768406	      8.75113318	      0.00000000	      0.00000000	    -15.92311135	    -26.86238949	     -3.32096672	     64.44715725	    -21.68244836	      3.43555088	    132.83881076	     40.06503256	      0.00000000	      0.00000000	    -76.89602162	    -13.24459994	    -40.57920218	     80.99957367	     89.50556531	      0.00000000	      0.00000000
      0.02000000	    -22.48177583	     18.64282090	     -4.56151397	     -3.13154405	      0.93889890	      0.38898754	    -11.11695257	    -20.72603387	      2.01130951	     16.99116360	      0.29655175	    -32.06060387	      0.00000000	      0.00000000	     76.68303015	      0.63666490	    -15.45802778	     78.90641429	      1.37717673	      8.71036072	      0.00000000	      0.00000000	    -16.26175546	    -27.24936135	     -3.79317186	     62.06708719	    -22.26983672	      3.29352958	    133.36045690	     42.45104540	      0.00000000	      0.00000000	    -76.01545406	    -13.27944135	    -40.76004962	     81.72353387	     89.49563514	      0.00000000	      0.00000000
      0.02500000	    -22.26848667	     18.67838484	     -4.18951094	     -3.10200912	      0.94242713	      0.38892647	    -11.62609792	    -20.49650886	      2.55208986	     18.66949337	      0.32584413	    -33.22152179	      0.00000000	      0.00000000	     75.59801224	      1.04332109	    -15.88524689	     74.22832548	      1.29552868	      8.55765293	      0.00000000	      0.00000000	    -16.73188913	    -27.45995004	     -4.08137405	     59.47046892	    -22.89094869	      3.15288457	    133.59170734	     45.56571923	      0.00000000	      0.00000000	    -74.78101450	    -13.44983085	    -40.75373338	     82.38454226	     89.47993935	      0.00000000	      0.00000000
      0.03000000	    -21.94799774	     18.59020651	     -3.94826562	     -3.07257563	      0.94601907	      0.38884377	    -11.92008592	    -20.15114881	      3.14427612	     20.90951201	      0.36493983	    -33.66527977	      0.00000000	      0.00000000	     74.23840004	      1.39188001	    -16.24785536	     69.52754882	      1.21348465	      8.27310691	      0.00000000	      0.00000000	    -17.32258764	    -27.50787444	     -4.19210357	     56.69047635	    -23.51775440	      2.96696782	    133.50575951	     49.51594138	      0.00000000	      0.00000000	    -73.22733428	    -13.75912160	    -40.53124380	     83.00320628	     89.22071237	      0.00000000	      0.00000000
      0.03500000	    -21.52984498	     18.39737934	     -3.81276179	     -3.04322783	      0.94959698	      0.38872614	    -12.02091398	    -19.71441059	      3.71993978	     23.66804832	      0.41308537	    -33.45544016	      0.00000000	      0.00000000	     72.63846756	      1.69800793	    -16.56405146	     64.85052919	      1.13185526	      7.83992098	      0.00000000	      0.00000000	    -18.01885943	    -27.41331437	     -4.14354395	     53.74730415	    -24.12238687	      2.69930895	    133.11627732	     53.93960920	      0.00000000	      0.00000000	    -71.39511746	    -14.20257059	    -40.07625828	     83.60067361	     88.59644374	      0.00000000	      0.00000000
      0.04000000	    -21.03116537	     18.11674803	     -3.74915477	     -3.01394641	      0.95308044	      0.38855656	    -11.95462317	    -19.20730015	      4.21389345	     26.87391833	      0.46903836	    -32.71760707	      0.00000000	      0.00000000	     70.84148689	      1.97746511	    -16.85277997	     60.25179271	      1.05159216	      7.24975589	      0.00000000	      0.00000000	    -18.80319367	    -27.19651529	     -3.96252788	     50.66087332	    -24.66221523	      2.21841910	    132.35902904	     59.85192996	      0.00000000	      0.00000000	    -69.30815442	    -14.77189570	    -39.49626622	     84.12364068	     89.39451253	      0.00000000	      0.00000000
      0.04500000	    -20.47807546	     17.75586794	     -3.71752280	     -2.98471592	      0.95638212	      0.38831810	    -11.74091291	    -18.63940629	      4.57293047	     30.44381643	      0.53134483	    -31.59510437	      0.00000000	      0.00000000	     68.90249719	      2.23972934	    -17.12634017	     55.79959295	      0.97388662	      6.50799007	      0.00000000	      0.00000000	    -19.64131523	    -26.86130315	     -3.67666475	     47.40466145	    -25.16381762	      1.82518054	    131.52864508	     62.24975816	      0.00000000	      0.00000000	    -67.05022752	    -15.43959482	    -38.53080941	     84.75979507	     87.36702129	      0.00000000	      0.00000000
      0.05000000	    -19.90054317	     17.31453402	     -3.67601365	     -2.95552361	      0.95941541	      0.38799986	    -11.39512316	    -18.01008902	      4.75702666	     34.28587818	      0.59840146	    -30.28777844	      0.00000000	      0.00000000	     66.88254541	      2.48551762	    -17.39286379	     51.57794080	      0.90020489	      5.63933352	      0.00000000	      0.00000000	    -20.51224222	    -26.41486434	     -3.31425992	     44.05689772	    -25.48633147	      0.80343118	    130.09507162	     70.47664282	      0.00000000	      0.00000000	    -64.58518183	    -16.19683707	    -37.60846276	     85.25067591	     89.30166073	      0.00000000	      0.00000000
      0.05500000	    -19.33449693	     16.78593382	     -3.58423572	     -2.92637032	      0.96208932	      0.38759532	    -10.91704499	    -17.30951415	      4.74259569	     38.32214325	      0.66884758	    -28.94474401	      0.00000000	      0.00000000	     64.85060958	      2.70510562	    -17.65344636	     47.68349363	      0.83223396	      4.68893808	      0.00000000	      0.00000000	    -21.36438613	    -25.84151524	     -2.90365446	     40.56095196	    -25.72660762	     -0.09896356	    128.61426083	     74.43777686	      0.00000000	      0.00000000	    -62.00972230	    -17.00328062	    -36.37735640	     85.84640806	     89.24407932	      0.00000000	      0.00000000
      0.06000000	    -18.81224744	     16.16928633	     -3.40884963	     -2.89726284	      0.96432643	      0.38710284	    -10.30253063	    -16.53337858	      4.51948127	     42.48381845	      0.74148251	    -27.70501113	      0.00000000	      0.00000000	     62.86924085	      2.88669893	    -17.91149316	     44.20907291	      0.77159388	      3.71608696	      0.00000000	      0.00000000	    -22.16357658	    -25.14115150	     -2.47167549	     36.97038618	    -25.82185395	     -1.08808347	    126.90275666	     77.15742654	      0.00000000	      0.00000000	    -59.33078989	    -17.83585554	    -34.98222562	     86.47482824	     89.17938000	      0.00000000	      0.00000000
      0.06500000	    -18.35890687	     15.47471690	     -3.12806653	     -2.86821253	      0.96606798	      0.38652590	     -9.54506262	    -15.68975029	      4.09303239	     46.71794421	      0.81538195	    -26.65090358	      0.00000000	      0.00000000	     60.98731909	      3.02242991	    -18.17046424	     41.22573252	      0.71952477	      2.78163740	      0.00000000	      0.00000000	    -22.87853188	    -24.32373789	     -2.04556085	     33.33147897	    -25.74603943	     -2.14498454	    124.95055879	     78.75612733	      0.00000000	      0.00000000	    -56.57302798	    -18.66951376	    -33.45042848	     87.14150037	     89.10860170	      0.00000000	      0.00000000
      0.07000000	    -17.98779309	     14.72406807	     -2.73399303	     -2.83922889	      0.96728110	      0.38587585	     -8.64199215	    -14.80092450	      3.48349642	     50.98575712	      0.88986933	    -25.80890774	      0.00000000	      0.00000000	     59.23197983	      3.11336422	    -18.42925977	     38.76803186	      0.67662980	      1.93309705	      0.00000000	      0.00000000	    -23.48984854	    -23.41373453	     -1.65181877	     29.70043885	    -25.47833999	     -3.25753961	    122.75449566	     79.50215388	      0.00000000	      0.00000000	    -53.75737325	    -19.48360479	    -31.81223097	     87.84983217	     89.03401932	      0.00000000	      0.00000000
      0.07500000	    -17.70043403	     13.94603536	     -2.23157119	     -2.81031660	      0.96795738	      0.38517264	     -7.59615007	    -13.89835038	      2.72369238	     55.26176644	      0.96449977	    -25.15403542	      0.00000000	      0.00000000	     57.60816503	      3.16951132	    -18.67570858	     36.83186565	      0.64283733	      1.19784243	      0.00000000	      0.00000000	    -23.99004723	    -22.44518346	     -1.31403252	     26.13187261	    -25.01651913	     -4.37816649	    120.34044284	     79.26271545	      0.00000000	      0.00000000	    -50.90004791	    -20.26290627	    -30.09798297	     88.60140747	     88.95846902	      0.00000000	      0.00000000
